<?xml version="1.0" encoding="utf-8"?>
<!-- Generator: Adobe Illustrator 25.2.3, SVG Export Plug-In . SVG Version: 6.00 Build 0)  -->
<svg version="1.1" id="Capa_1" xmlns="http://www.w3.org/2000/svg" xmlns:xlink="http://www.w3.org/1999/xlink" x="0px" y="0px"
	 viewBox="0 0 30.88 36.09" style="enable-background:new 0 0 30.88 36.09;" xml:space="preserve">
<style type="text/css">
	.st0{fill:#020203;}
</style>
<path class="st0" d="M30.88,14.6c-0.29,0.03-0.59,0.04-0.89,0.05c-3.25,0-6.28-1.64-8.06-4.36v14.83c0,6.06-4.91,10.96-10.96,10.96
	C4.91,36.09,0,31.18,0,25.12c0-6.06,4.91-10.96,10.96-10.96l0,0c0.23,0,0.45,0.02,0.68,0.03v5.4c-0.22-0.03-0.45-0.07-0.68-0.07
	c-3.09,0-5.6,2.51-5.6,5.6c0,3.09,2.51,5.6,5.6,5.6c3.09,0,5.82-2.44,5.82-5.53L16.84,0h5.17c0.49,4.64,4.22,8.26,8.87,8.6
	L30.88,14.6"/>
</svg>
